<svg xmlns="http://www.w3.org/2000/svg" xmlns:xlink="http://www.w3.org/1999/xlink" width="500" zoomAndPan="magnify" viewBox="0 0 375 374.999991" height="500" preserveAspectRatio="xMidYMid meet" version="1.0"><defs><g/><clipPath id="1d7402b8f5"><path d="M 47 2.449219 L 202 2.449219 L 202 166 L 47 166 Z M 47 2.449219 " clip-rule="nonzero"/></clipPath><clipPath id="2db54f2955"><path d="M 4.589844 46 L 375 46 L 375 327 L 4.589844 327 Z M 4.589844 46 " clip-rule="nonzero"/></clipPath></defs><g clip-path="url(#1d7402b8f5)"><path fill="#1658ad" d="M 187.839844 116.988281 C 190.492188 115.3125 193.113281 113.636719 195.730469 111.957031 C 197.679688 110.71875 199.625 109.476562 201.574219 108.234375 C 197.476562 101.425781 193.382812 94.585938 189.351562 87.742188 C 181.324219 74.226562 173.433594 60.640625 165.574219 47.023438 C 157.617188 33.238281 149.253906 19.585938 141.96875 5.46875 C 141.800781 5.164062 141.699219 4.828125 141.667969 4.5625 C 139.214844 4.425781 136.761719 3.957031 134.3125 3.554688 C 132.5 3.253906 130.71875 2.953125 128.90625 2.816406 C 124.136719 2.449219 119.300781 2.515625 114.53125 3.050781 C 97.472656 4.898438 81.390625 12.710938 69.300781 24.851562 C 63.523438 30.65625 58.6875 37.332031 54.859375 44.542969 C 52.980469 48.097656 51.367188 51.753906 50.058594 55.542969 C 48.984375 58.628906 48.3125 61.816406 47.171875 64.867188 C 52.074219 71.945312 56.503906 79.355469 61.003906 86.703125 C 77.125 112.996094 92.972656 139.460938 108.957031 165.859375 C 135.421875 149.859375 161.746094 133.589844 187.839844 116.988281 Z M 158.558594 83.953125 C 159.027344 83.078125 159.933594 82.542969 160.808594 82.207031 C 161.210938 82.074219 161.648438 82.074219 162.082031 82.007812 C 162.753906 82.007812 163.394531 82.175781 163.996094 82.507812 C 164.265625 82.710938 164.5 82.910156 164.769531 83.113281 C 165.507812 83.785156 165.84375 84.824219 165.878906 85.796875 C 165.910156 86.734375 165.441406 87.808594 164.769531 88.480469 C 164.433594 88.847656 164.03125 89.117188 163.5625 89.25 C 163.292969 89.386719 163.023438 89.484375 162.753906 89.519531 C 162.585938 89.554688 162.453125 89.585938 162.285156 89.621094 C 162.25 89.621094 162.25 89.621094 162.21875 89.652344 C 162.21875 89.652344 162.183594 89.652344 162.183594 89.652344 C 161.613281 89.820312 161.007812 89.820312 160.4375 89.652344 C 160.070312 89.554688 159.867188 89.453125 159.597656 89.285156 C 158.492188 88.613281 157.953125 87.472656 157.851562 86.234375 C 157.851562 85.425781 158.121094 84.621094 158.558594 83.953125 Z M 139.449219 51.214844 C 139.652344 50.546875 139.988281 49.941406 140.492188 49.4375 C 140.996094 48.933594 141.597656 48.601562 142.269531 48.398438 C 142.976562 48.199219 143.714844 48.199219 144.421875 48.398438 C 144.957031 48.53125 145.394531 48.769531 145.796875 49.136719 C 146.234375 49.40625 146.570312 49.808594 146.835938 50.277344 C 147.207031 50.914062 147.375 51.585938 147.375 52.324219 C 147.375 53.699219 146.601562 55.140625 145.359375 55.8125 C 144.921875 56.046875 144.453125 56.246094 143.984375 56.382812 C 143.277344 56.550781 142.640625 56.582031 141.902344 56.382812 C 141.363281 56.246094 141.027344 56.046875 140.625 55.710938 C 140.222656 55.410156 139.953125 55.140625 139.683594 54.671875 C 139.347656 54.101562 139.113281 53.328125 139.148438 52.691406 C 139.25 52.1875 139.28125 51.6875 139.449219 51.214844 Z M 139.316406 72.378906 C 139.617188 71.878906 140.019531 71.476562 140.492188 71.207031 C 141.230469 70.769531 142.203125 70.636719 143.042969 70.871094 C 143.882812 71.105469 144.554688 71.675781 145.023438 72.378906 C 145.628906 73.320312 145.628906 74.761719 145.023438 75.734375 C 144.621094 76.339844 144.351562 76.605469 143.75 77.007812 C 143.042969 77.511719 142.070312 77.511719 141.261719 77.34375 C 140.828125 77.242188 140.492188 77.042969 140.15625 76.773438 C 139.820312 76.539062 139.515625 76.238281 139.316406 75.867188 C 138.945312 75.199219 138.914062 74.828125 138.8125 74.058594 C 138.878906 73.453125 139.011719 72.882812 139.316406 72.378906 Z M 136.292969 96.09375 C 137.03125 97.367188 137.03125 98.976562 136.292969 100.253906 C 135.789062 101.125 135.015625 101.695312 134.109375 102.03125 C 132.96875 102.53125 131.59375 102.464844 130.484375 101.828125 C 129.878906 101.460938 129.410156 100.992188 129.039062 100.386719 C 128.671875 99.75 128.503906 99.078125 128.503906 98.375 C 128.570312 97.535156 128.671875 96.796875 129.140625 96.09375 C 129.511719 95.488281 130.015625 94.988281 130.617188 94.617188 C 131.257812 94.25 131.960938 94.046875 132.699219 94.046875 C 134.179688 94.046875 135.554688 94.851562 136.292969 96.09375 Z M 126.1875 22.371094 C 126.355469 21.867188 126.65625 21.398438 127.058594 21.03125 C 127.429688 20.628906 127.898438 20.324219 128.402344 20.15625 C 128.90625 19.890625 129.441406 19.789062 130.015625 19.789062 C 131.15625 19.789062 132.128906 20.257812 132.96875 20.996094 C 133.472656 21.5 133.84375 22.136719 134.042969 22.839844 C 134.078125 23.210938 134.144531 23.578125 134.179688 23.949219 C 134.210938 24.519531 134.078125 25.054688 133.808594 25.558594 C 133.640625 26.0625 133.339844 26.53125 132.933594 26.898438 C 132.566406 27.300781 132.097656 27.605469 131.59375 27.769531 C 131.089844 28.039062 130.550781 28.140625 129.980469 28.140625 C 128.839844 28.140625 127.863281 27.671875 127.023438 26.933594 C 126.519531 26.429688 126.152344 25.792969 125.949219 25.089844 C 125.917969 24.71875 125.851562 24.351562 125.816406 23.980469 C 125.816406 23.410156 125.917969 22.875 126.1875 22.371094 Z M 125.984375 66.410156 C 126.117188 66.710938 126.21875 67.015625 126.355469 67.28125 C 126.386719 67.617188 126.453125 67.953125 126.488281 68.253906 C 126.453125 68.589844 126.386719 68.925781 126.355469 69.226562 C 126.21875 69.53125 126.117188 69.832031 125.984375 70.097656 C 125.78125 70.335938 125.582031 70.601562 125.414062 70.835938 C 125.078125 71.207031 124.675781 71.441406 124.203125 71.609375 C 123.902344 71.777344 123.601562 71.878906 123.265625 71.878906 C 122.929688 71.976562 122.59375 71.976562 122.289062 71.878906 C 121.953125 71.878906 121.652344 71.777344 121.351562 71.609375 C 121.046875 71.507812 120.746094 71.375 120.542969 71.140625 C 120.207031 70.9375 119.941406 70.636719 119.703125 70.300781 C 119.671875 70.265625 119.636719 70.199219 119.605469 70.167969 C 119.402344 69.964844 119.234375 69.695312 119.167969 69.429688 C 118.964844 69.027344 118.863281 68.589844 118.863281 68.121094 C 118.898438 67.820312 118.933594 67.515625 119 67.214844 C 119.101562 66.945312 119.234375 66.679688 119.335938 66.410156 C 119.503906 66.175781 119.703125 65.941406 119.871094 65.707031 C 119.871094 65.671875 119.90625 65.671875 119.941406 65.671875 C 120.175781 65.503906 120.410156 65.304688 120.644531 65.136719 C 120.679688 65.136719 120.710938 65.101562 120.710938 65.101562 C 120.980469 64.933594 121.214844 64.867188 121.484375 64.765625 C 121.886719 64.597656 122.15625 64.597656 122.828125 64.53125 C 123.332031 64.5 123.835938 64.632812 124.273438 64.867188 C 124.574219 64.96875 124.875 65.101562 125.078125 65.335938 C 125.414062 65.636719 125.75 65.972656 125.984375 66.410156 Z M 116.816406 42.363281 C 116.816406 41.691406 116.984375 41.054688 117.320312 40.484375 C 117.65625 39.914062 118.09375 39.476562 118.664062 39.140625 C 119.804688 38.472656 121.28125 38.472656 122.425781 39.140625 C 123.566406 39.8125 124.273438 41.054688 124.273438 42.363281 C 124.273438 43.667969 123.566406 44.910156 122.425781 45.582031 C 122.054688 45.78125 121.652344 45.949219 121.28125 46.085938 C 120.644531 46.253906 120.039062 46.253906 119.402344 46.085938 C 118.933594 45.984375 118.527344 45.75 118.195312 45.449219 C 117.824219 45.210938 117.523438 44.878906 117.285156 44.472656 C 116.949219 43.9375 116.816406 43.335938 116.816406 42.695312 C 116.78125 42.5625 116.78125 42.460938 116.816406 42.363281 Z M 94.285156 31.09375 C 94.316406 30.523438 94.484375 29.984375 94.789062 29.515625 C 95.023438 29.214844 95.222656 28.945312 95.460938 28.644531 C 95.761719 28.410156 96.03125 28.207031 96.332031 27.972656 C 96.667969 27.839844 97.003906 27.671875 97.339844 27.535156 C 97.710938 27.46875 98.078125 27.4375 98.480469 27.367188 C 98.851562 27.4375 99.21875 27.46875 99.625 27.535156 C 100.195312 27.671875 100.664062 27.9375 101.066406 28.308594 C 101.402344 28.507812 101.636719 28.742188 101.839844 29.078125 C 102.109375 29.347656 102.277344 29.648438 102.375 30.019531 C 102.578125 30.355469 102.679688 30.722656 102.679688 31.09375 C 102.78125 31.460938 102.78125 31.828125 102.679688 32.230469 C 102.644531 32.800781 102.476562 33.339844 102.175781 33.808594 C 101.941406 34.109375 101.738281 34.378906 101.503906 34.679688 C 101.203125 34.914062 100.933594 35.117188 100.628906 35.351562 C 100.496094 35.417969 100.328125 35.484375 100.195312 35.554688 C 99.757812 35.820312 99.320312 35.957031 98.816406 35.988281 C 98.480469 36.089844 98.144531 36.089844 97.84375 35.988281 C 97.339844 35.957031 96.902344 35.820312 96.464844 35.554688 C 96.230469 35.351562 95.960938 35.148438 95.726562 34.984375 C 95.425781 34.613281 95.125 34.210938 94.855469 33.84375 C 94.550781 33.339844 94.382812 32.835938 94.351562 32.265625 C 94.183594 31.828125 94.183594 31.460938 94.285156 31.09375 Z M 77.59375 60.507812 C 77.425781 61.011719 77.15625 61.445312 76.753906 61.816406 C 76.386719 62.21875 75.949219 62.484375 75.445312 62.652344 C 74.976562 62.921875 74.4375 63.023438 73.898438 62.988281 C 72.792969 62.988281 71.816406 62.519531 71.046875 61.816406 C 70.542969 61.3125 70.207031 60.707031 70.003906 60.039062 C 69.972656 59.667969 69.902344 59.332031 69.871094 58.964844 C 69.835938 58.394531 69.972656 57.890625 70.207031 57.421875 C 70.375 56.917969 70.644531 56.480469 71.046875 56.113281 C 71.414062 55.710938 71.851562 55.441406 72.355469 55.273438 C 72.824219 55.007812 73.363281 54.90625 73.898438 54.9375 C 75.007812 54.9375 75.980469 55.410156 76.753906 56.113281 C 77.257812 56.617188 77.59375 57.21875 77.796875 57.890625 C 77.828125 58.257812 77.894531 58.59375 77.929688 58.964844 C 77.964844 59.535156 77.863281 60.039062 77.59375 60.507812 Z M 95.59375 85.261719 C 95.425781 85.761719 95.125 86.234375 94.71875 86.601562 C 94.351562 87.003906 93.882812 87.304688 93.378906 87.472656 C 92.875 87.742188 92.335938 87.84375 91.765625 87.84375 C 90.625 87.84375 89.617188 87.371094 88.808594 86.636719 C 88.304688 86.097656 87.9375 85.496094 87.734375 84.789062 C 87.703125 84.421875 87.636719 84.050781 87.601562 83.683594 C 87.566406 83.113281 87.703125 82.578125 87.96875 82.074219 C 88.136719 81.570312 88.441406 81.101562 88.84375 80.730469 C 89.214844 80.328125 89.683594 80.027344 90.1875 79.859375 C 90.691406 79.589844 91.226562 79.492188 91.800781 79.492188 C 92.941406 79.492188 93.949219 79.960938 94.753906 80.699219 C 95.257812 81.234375 95.628906 81.839844 95.828125 82.542969 C 95.863281 82.910156 95.929688 83.28125 95.960938 83.648438 C 95.996094 84.21875 95.863281 84.757812 95.59375 85.261719 Z M 99.289062 59.367188 C 99.253906 59.5 99.1875 59.667969 99.152344 59.800781 C 98.917969 60.441406 98.648438 61.011719 98.179688 61.511719 C 97.945312 61.746094 97.609375 61.949219 97.375 62.152344 C 96.800781 62.484375 96.199219 62.652344 95.527344 62.652344 C 95.191406 62.621094 94.886719 62.554688 94.550781 62.519531 C 94.082031 62.417969 93.644531 62.183594 93.308594 61.847656 C 92.90625 61.582031 92.605469 61.246094 92.371094 60.808594 C 92.300781 60.640625 92.203125 60.472656 92.132812 60.304688 C 91.964844 60.003906 91.867188 59.703125 91.867188 59.367188 C 91.765625 59.03125 91.765625 58.695312 91.867188 58.359375 C 91.898438 58.191406 91.898438 57.992188 91.933594 57.824219 C 91.964844 57.691406 91.964844 57.523438 92 57.386719 C 92.167969 56.75 92.503906 56.179688 92.972656 55.710938 C 93.242188 55.507812 93.476562 55.308594 93.746094 55.105469 C 94.621094 54.570312 95.695312 54.503906 96.667969 54.738281 C 97.171875 54.839844 97.574219 55.074219 97.945312 55.410156 C 98.347656 55.675781 98.683594 56.011719 98.917969 56.480469 C 99.1875 56.917969 99.355469 57.386719 99.355469 57.890625 C 99.457031 58.359375 99.421875 58.863281 99.289062 59.367188 Z M 107.683594 114.441406 C 107.515625 114.941406 107.246094 115.34375 106.875 115.714844 C 106.507812 116.082031 106.105469 116.386719 105.601562 116.519531 C 105.128906 116.753906 104.625 116.886719 104.089844 116.855469 C 103.015625 116.855469 102.074219 116.417969 101.300781 115.679688 C 100.796875 115.179688 100.460938 114.609375 100.292969 113.9375 C 100.261719 113.601562 100.195312 113.234375 100.160156 112.898438 C 100.125 112.359375 100.261719 111.855469 100.496094 111.386719 C 100.664062 110.882812 100.933594 110.480469 101.300781 110.113281 C 101.671875 109.746094 102.074219 109.441406 102.578125 109.308594 C 103.046875 109.074219 103.550781 108.9375 104.089844 108.972656 C 105.164062 108.972656 106.105469 109.410156 106.875 110.148438 C 107.378906 110.648438 107.714844 111.21875 107.882812 111.890625 C 107.917969 112.226562 107.984375 112.59375 108.019531 112.929688 C 108.019531 113.46875 107.917969 113.96875 107.683594 114.441406 Z M 108.890625 90.558594 C 108.722656 89.921875 108.722656 89.285156 108.890625 88.648438 C 109.058594 88.042969 109.363281 87.507812 109.832031 87.039062 C 110.269531 86.601562 110.804688 86.265625 111.445312 86.097656 C 111.914062 85.929688 112.417969 85.929688 112.886719 86.03125 C 113.359375 86.066406 113.828125 86.199219 114.230469 86.46875 C 114.769531 86.800781 115.203125 87.238281 115.539062 87.773438 C 115.875 88.34375 116.042969 88.949219 116.042969 89.585938 C 116.042969 90.222656 115.875 90.859375 115.539062 91.398438 C 115.441406 91.53125 115.304688 91.699219 115.203125 91.832031 C 115.035156 92.101562 114.835938 92.304688 114.566406 92.472656 C 114.332031 92.707031 114.0625 92.839844 113.761719 92.941406 C 113.625 93.007812 113.457031 93.074219 113.324219 93.140625 C 113.15625 93.207031 113.089844 93.175781 112.820312 93.207031 C 112.214844 93.277344 112.484375 93.277344 111.878906 93.207031 C 111.375 93.140625 111.109375 93.109375 110.605469 92.804688 C 110.402344 92.671875 110.066406 92.402344 109.867188 92.234375 C 109.699219 92.070312 109.394531 91.664062 109.261719 91.464844 C 109.125 91.164062 109.027344 90.894531 108.890625 90.59375 C 108.890625 90.59375 108.890625 90.59375 108.890625 90.558594 Z M 108.890625 90.558594 " fill-opacity="1" fill-rule="nonzero"/></g><path fill="#1658ad" d="M 247.582031 222.238281 C 228.875 235.050781 209.769531 247.226562 190.359375 258.933594 C 185.355469 261.949219 180.351562 264.96875 175.3125 267.953125 C 177.800781 271.476562 180.25 275.03125 182.734375 278.585938 C 184.28125 280.800781 185.824219 283.015625 187.371094 285.226562 C 203.523438 308.640625 219.40625 332.519531 232.097656 357.976562 C 232.402344 358.582031 232.503906 359.183594 232.433594 359.753906 C 235.691406 362.90625 239.453125 365.492188 243.515625 367.4375 C 247.78125 369.480469 252.347656 370.789062 257.050781 371.257812 C 266.386719 372.199219 275.148438 369.816406 283.34375 365.421875 C 292.007812 360.792969 300.269531 354.992188 307.421875 348.316406 C 314.304688 341.878906 320.25 334.296875 323.773438 325.476562 C 325.554688 321.015625 326.832031 316.253906 327.167969 311.457031 C 327.335938 309.042969 327.300781 306.625 327.199219 304.210938 C 327.167969 303.507812 327.132812 302.769531 327.132812 302.097656 C 327.066406 302.03125 327 301.964844 326.933594 301.898438 C 321.558594 295.425781 317.027344 288.3125 312.289062 281.371094 C 298.992188 261.75 285.894531 242.027344 272.96875 222.136719 C 272.867188 222.003906 272.800781 221.871094 272.699219 221.734375 C 270.148438 217.84375 267.628906 213.921875 265.109375 209.996094 C 259.367188 214.121094 253.492188 218.214844 247.582031 222.238281 Z M 217.457031 278.789062 C 216.988281 279.660156 216.082031 280.195312 215.207031 280.53125 C 214.804688 280.667969 214.367188 280.667969 213.933594 280.734375 C 213.261719 280.734375 212.621094 280.566406 212.019531 280.230469 C 211.75 280.027344 211.515625 279.828125 211.246094 279.625 C 210.507812 278.957031 210.171875 277.917969 210.136719 276.945312 C 210.105469 276.003906 210.574219 274.929688 211.246094 274.261719 C 211.582031 273.890625 211.984375 273.621094 212.453125 273.488281 C 212.722656 273.355469 212.992188 273.253906 213.261719 273.21875 C 213.429688 273.1875 213.5625 273.152344 213.730469 273.121094 C 213.765625 273.121094 213.765625 273.121094 213.796875 273.085938 C 213.796875 273.085938 213.832031 273.085938 213.832031 273.085938 C 214.402344 272.917969 215.007812 272.917969 215.578125 273.085938 C 215.945312 273.1875 216.148438 273.289062 216.417969 273.457031 C 217.527344 274.125 218.0625 275.265625 218.164062 276.507812 C 218.164062 277.3125 217.894531 278.117188 217.457031 278.789062 Z M 236.566406 311.523438 C 236.363281 312.195312 236.027344 312.796875 235.523438 313.300781 C 235.019531 313.804688 234.417969 314.140625 233.746094 314.339844 C 233.039062 314.542969 232.300781 314.542969 231.597656 314.339844 C 231.058594 314.207031 230.621094 313.972656 230.21875 313.601562 C 229.78125 313.335938 229.445312 312.933594 229.179688 312.460938 C 228.808594 311.824219 228.640625 311.15625 228.640625 310.417969 C 228.640625 309.042969 229.414062 307.597656 230.65625 306.929688 C 231.09375 306.695312 231.5625 306.492188 232.03125 306.359375 C 232.738281 306.191406 233.375 306.15625 234.113281 306.359375 C 234.652344 306.492188 234.988281 306.695312 235.390625 307.027344 C 235.792969 307.332031 236.0625 307.597656 236.332031 308.070312 C 236.667969 308.640625 236.902344 309.410156 236.867188 310.046875 C 236.765625 310.550781 236.734375 311.054688 236.566406 311.523438 Z M 239.722656 266.648438 C 238.984375 265.371094 238.984375 263.761719 239.722656 262.488281 C 240.226562 261.617188 241 261.046875 241.90625 260.710938 C 243.046875 260.207031 244.421875 260.273438 245.53125 260.910156 C 246.136719 261.28125 246.605469 261.75 246.976562 262.351562 C 247.34375 262.992188 247.511719 263.660156 247.511719 264.367188 C 247.445312 265.203125 247.34375 265.941406 246.875 266.648438 C 246.503906 267.25 246.003906 267.753906 245.398438 268.121094 C 244.757812 268.492188 244.054688 268.691406 243.316406 268.691406 C 241.839844 268.691406 240.460938 267.886719 239.722656 266.648438 Z M 249.832031 340.367188 C 249.664062 340.871094 249.359375 341.339844 248.957031 341.710938 C 248.585938 342.113281 248.117188 342.414062 247.613281 342.582031 C 247.109375 342.851562 246.574219 342.949219 246.003906 342.949219 C 244.859375 342.949219 243.886719 342.480469 243.046875 341.742188 C 242.542969 341.242188 242.175781 340.601562 241.972656 339.898438 C 241.9375 339.53125 241.871094 339.160156 241.839844 338.792969 C 241.804688 338.222656 241.9375 337.683594 242.207031 337.183594 C 242.375 336.679688 242.675781 336.210938 243.082031 335.839844 C 243.449219 335.4375 243.921875 335.136719 244.421875 334.96875 C 244.925781 334.699219 245.464844 334.597656 246.035156 334.597656 C 247.175781 334.597656 248.152344 335.070312 248.992188 335.808594 C 249.496094 336.308594 249.863281 336.949219 250.066406 337.652344 C 250.097656 338.019531 250.167969 338.390625 250.199219 338.757812 C 250.199219 339.363281 250.097656 339.898438 249.832031 340.367188 Z M 250.03125 296.328125 C 249.898438 296.027344 249.796875 295.726562 249.664062 295.457031 C 249.628906 295.121094 249.5625 294.785156 249.527344 294.484375 C 249.5625 294.148438 249.628906 293.8125 249.664062 293.511719 C 249.796875 293.210938 249.898438 292.910156 250.03125 292.640625 C 250.234375 292.40625 250.433594 292.136719 250.601562 291.902344 C 250.9375 291.535156 251.339844 291.296875 251.8125 291.132812 C 252.113281 290.964844 252.414062 290.863281 252.75 290.863281 C 253.085938 290.761719 253.421875 290.761719 253.726562 290.863281 C 254.0625 290.863281 254.363281 290.964844 254.664062 291.132812 C 254.96875 291.230469 255.269531 291.367188 255.472656 291.601562 C 255.808594 291.800781 256.078125 292.105469 256.3125 292.4375 C 256.34375 292.472656 256.378906 292.539062 256.414062 292.574219 C 256.613281 292.773438 256.78125 293.042969 256.847656 293.3125 C 257.050781 293.714844 257.152344 294.148438 257.152344 294.621094 C 257.117188 294.921875 257.082031 295.222656 257.015625 295.523438 C 256.914062 295.792969 256.78125 296.0625 256.679688 296.328125 C 256.511719 296.566406 256.3125 296.800781 256.144531 297.035156 C 256.144531 297.035156 256.109375 297.066406 256.078125 297.066406 C 255.839844 297.234375 255.605469 297.4375 255.371094 297.605469 C 255.335938 297.605469 255.304688 297.636719 255.304688 297.636719 C 255.035156 297.804688 254.800781 297.871094 254.53125 297.972656 C 254.128906 298.140625 253.859375 298.140625 253.1875 298.207031 C 252.683594 298.242188 252.214844 298.109375 251.746094 297.871094 C 251.441406 297.773438 251.140625 297.636719 250.9375 297.402344 C 250.601562 297.136719 250.265625 296.765625 250.03125 296.328125 Z M 259.199219 320.378906 C 259.199219 321.050781 259.03125 321.6875 258.695312 322.257812 C 258.359375 322.828125 257.921875 323.261719 257.351562 323.597656 C 256.210938 324.269531 254.734375 324.269531 253.589844 323.597656 C 252.449219 322.925781 251.746094 321.6875 251.746094 320.378906 C 251.746094 319.070312 252.449219 317.828125 253.589844 317.160156 C 253.960938 316.957031 254.363281 316.789062 254.734375 316.65625 C 255.371094 316.488281 255.976562 316.488281 256.613281 316.65625 C 257.082031 316.757812 257.488281 316.992188 257.824219 317.292969 C 258.191406 317.527344 258.492188 317.863281 258.730469 318.265625 C 259.066406 318.800781 259.199219 319.40625 259.199219 320.042969 C 259.234375 320.175781 259.234375 320.277344 259.199219 320.378906 Z M 281.730469 331.648438 C 281.699219 332.21875 281.53125 332.753906 281.226562 333.222656 C 280.992188 333.527344 280.792969 333.792969 280.558594 334.097656 C 280.253906 334.332031 279.984375 334.53125 279.683594 334.765625 C 279.347656 334.902344 279.011719 335.070312 278.675781 335.203125 C 278.308594 335.269531 277.9375 335.304688 277.535156 335.371094 C 277.164062 335.304688 276.796875 335.269531 276.394531 335.203125 C 275.820312 335.070312 275.351562 334.800781 274.949219 334.433594 C 274.613281 334.230469 274.378906 333.996094 274.175781 333.660156 C 273.90625 333.390625 273.738281 333.089844 273.640625 332.722656 C 273.4375 332.386719 273.335938 332.015625 273.335938 331.648438 C 273.234375 331.277344 273.234375 330.910156 273.335938 330.507812 C 273.371094 329.9375 273.539062 329.402344 273.839844 328.929688 C 274.074219 328.628906 274.277344 328.359375 274.511719 328.058594 C 274.8125 327.824219 275.082031 327.621094 275.386719 327.386719 C 275.519531 327.320312 275.6875 327.253906 275.820312 327.1875 C 276.257812 326.917969 276.695312 326.785156 277.199219 326.75 C 277.535156 326.648438 277.871094 326.648438 278.171875 326.75 C 278.675781 326.785156 279.113281 326.917969 279.550781 327.1875 C 279.785156 327.386719 280.054688 327.589844 280.289062 327.757812 C 280.589844 328.125 280.890625 328.527344 281.160156 328.898438 C 281.464844 329.402344 281.632812 329.902344 281.664062 330.472656 C 281.832031 330.910156 281.832031 331.277344 281.730469 331.648438 Z M 298.421875 302.234375 C 298.589844 301.730469 298.859375 301.292969 299.261719 300.925781 C 299.628906 300.523438 300.066406 300.253906 300.570312 300.085938 C 301.042969 299.816406 301.578125 299.71875 302.117188 299.75 C 303.222656 299.75 304.199219 300.21875 304.96875 300.925781 C 305.472656 301.429688 305.808594 302.03125 306.011719 302.703125 C 306.042969 303.070312 306.113281 303.40625 306.144531 303.777344 C 306.179688 304.347656 306.042969 304.847656 305.808594 305.320312 C 305.640625 305.820312 305.371094 306.257812 304.96875 306.625 C 304.601562 307.027344 304.164062 307.296875 303.660156 307.464844 C 303.191406 307.734375 302.652344 307.835938 302.117188 307.800781 C 301.007812 307.800781 300.035156 307.332031 299.261719 306.625 C 298.757812 306.125 298.421875 305.519531 298.21875 304.847656 C 298.1875 304.480469 298.121094 304.144531 298.085938 303.777344 C 298.050781 303.238281 298.152344 302.703125 298.421875 302.234375 Z M 280.421875 277.480469 C 280.589844 276.976562 280.890625 276.507812 281.296875 276.136719 C 281.664062 275.734375 282.136719 275.433594 282.640625 275.265625 C 283.140625 275 283.679688 274.898438 284.25 274.898438 C 285.390625 274.898438 286.398438 275.367188 287.207031 276.105469 C 287.710938 276.640625 288.078125 277.246094 288.28125 277.949219 C 288.3125 278.320312 288.382812 278.6875 288.414062 279.054688 C 288.449219 279.625 288.3125 280.164062 288.046875 280.667969 C 287.878906 281.167969 287.574219 281.640625 287.171875 282.007812 C 286.804688 282.410156 286.332031 282.710938 285.828125 282.878906 C 285.324219 283.148438 284.789062 283.25 284.21875 283.25 C 283.074219 283.25 282.066406 282.78125 281.261719 282.042969 C 280.757812 281.503906 280.390625 280.902344 280.1875 280.195312 C 280.152344 279.828125 280.085938 279.460938 280.054688 279.089844 C 280.054688 278.519531 280.152344 277.984375 280.421875 277.480469 Z M 276.730469 303.375 C 276.761719 303.238281 276.828125 303.070312 276.863281 302.9375 C 277.097656 302.300781 277.367188 301.730469 277.835938 301.226562 C 278.070312 300.992188 278.40625 300.789062 278.644531 300.589844 C 279.214844 300.253906 279.816406 300.085938 280.488281 300.085938 C 280.824219 300.121094 281.128906 300.1875 281.464844 300.21875 C 281.933594 300.320312 282.371094 300.554688 282.707031 300.890625 C 283.109375 301.160156 283.410156 301.496094 283.644531 301.929688 C 283.714844 302.097656 283.8125 302.265625 283.882812 302.433594 C 284.050781 302.734375 284.148438 303.039062 284.148438 303.375 C 284.25 303.707031 284.25 304.042969 284.148438 304.378906 C 284.117188 304.546875 284.117188 304.75 284.082031 304.917969 C 284.050781 305.050781 284.050781 305.21875 284.015625 305.351562 C 283.847656 305.988281 283.511719 306.558594 283.042969 307.027344 C 282.773438 307.230469 282.539062 307.433594 282.269531 307.632812 C 281.394531 308.203125 280.320312 308.238281 279.347656 308 C 278.84375 307.902344 278.441406 307.667969 278.070312 307.332031 C 277.667969 307.0625 277.332031 306.726562 277.097656 306.257812 C 276.828125 305.820312 276.660156 305.351562 276.660156 304.847656 C 276.5625 304.378906 276.59375 303.875 276.730469 303.375 Z M 268.332031 248.300781 C 268.5 247.796875 268.769531 247.394531 269.140625 247.027344 C 269.507812 246.621094 269.910156 246.355469 270.414062 246.21875 C 270.886719 245.984375 271.390625 245.851562 271.925781 245.886719 C 273 245.886719 273.941406 246.320312 274.714844 247.058594 C 275.21875 247.5625 275.554688 248.132812 275.722656 248.804688 C 275.753906 249.136719 275.820312 249.507812 275.855469 249.84375 C 275.890625 250.378906 275.753906 250.882812 275.519531 251.351562 C 275.351562 251.855469 275.082031 252.257812 274.714844 252.625 C 274.34375 253.027344 273.941406 253.296875 273.4375 253.429688 C 272.96875 253.667969 272.464844 253.800781 271.925781 253.765625 C 270.851562 253.765625 269.910156 253.332031 269.140625 252.59375 C 268.636719 252.089844 268.300781 251.519531 268.132812 250.847656 C 268.097656 250.511719 268.03125 250.144531 267.996094 249.808594 C 267.996094 249.304688 268.097656 248.769531 268.332031 248.300781 Z M 266.183594 270.503906 C 266.351562 270.671875 266.652344 271.074219 266.789062 271.273438 C 266.921875 271.578125 267.023438 271.84375 267.15625 272.148438 C 267.15625 272.179688 267.15625 272.214844 267.15625 272.214844 C 267.324219 272.851562 267.324219 273.488281 267.15625 274.125 C 266.988281 274.730469 266.6875 275.265625 266.21875 275.734375 C 265.78125 276.171875 265.242188 276.507812 264.605469 276.675781 C 264.136719 276.84375 263.632812 276.84375 263.160156 276.742188 C 262.691406 276.707031 262.222656 276.574219 261.820312 276.304688 C 261.28125 275.972656 260.84375 275.535156 260.507812 275 C 260.171875 274.429688 260.003906 273.824219 260.003906 273.1875 C 260.003906 272.550781 260.171875 271.914062 260.507812 271.375 C 260.609375 271.242188 260.742188 271.074219 260.84375 270.941406 C 261.011719 270.671875 261.214844 270.46875 261.484375 270.300781 C 261.71875 270.066406 261.988281 269.933594 262.289062 269.832031 C 262.421875 269.765625 262.589844 269.699219 262.726562 269.632812 C 262.894531 269.566406 262.960938 269.597656 263.230469 269.566406 C 263.832031 269.496094 263.566406 269.496094 264.136719 269.566406 C 264.640625 269.632812 264.90625 269.664062 265.410156 269.96875 C 265.648438 270.066406 265.984375 270.335938 266.183594 270.503906 Z M 266.183594 270.503906 " fill-opacity="1" fill-rule="nonzero"/><g clip-path="url(#2db54f2955)"><path fill="#1658ad" d="M 351.078125 66.476562 C 344.628906 59.601562 337.039062 53.664062 328.207031 50.144531 C 323.742188 48.367188 318.972656 47.089844 314.171875 46.753906 C 311.753906 46.585938 309.335938 46.621094 306.917969 46.722656 C 306.179688 46.753906 305.472656 46.789062 304.769531 46.789062 C 304.703125 46.855469 304.632812 46.921875 304.566406 46.988281 C 299.699219 51.214844 294.222656 54.671875 288.886719 58.292969 C 283.644531 61.847656 278.40625 65.402344 273.136719 68.925781 C 262.625 76.003906 252.046875 83.011719 241.46875 89.988281 C 229.179688 98.070312 216.855469 106.089844 204.460938 114.003906 C 203.957031 114.304688 203.457031 114.640625 202.984375 114.941406 C 177.800781 131.074219 152.414062 146.941406 126.855469 162.503906 C 107.546875 174.242188 88.136719 185.8125 68.628906 197.152344 C 58.585938 202.988281 48.511719 208.722656 38.472656 214.523438 C 28.296875 220.394531 18.191406 226.5 7.746094 231.832031 C 7.445312 232 7.109375 232.101562 6.839844 232.132812 C 6.570312 236.359375 5.429688 240.621094 5.09375 244.878906 C 4.722656 249.640625 4.789062 254.472656 5.328125 259.234375 C 7.175781 276.273438 15.03125 292.339844 27.15625 304.414062 C 29.304688 306.558594 31.589844 308.570312 33.972656 310.449219 C 38.003906 313.636719 42.335938 316.421875 46.902344 318.835938 C 50.460938 320.714844 54.121094 322.324219 57.914062 323.632812 C 61.003906 324.707031 64.195312 325.375 67.21875 326.515625 C 77.828125 319.070312 89.144531 312.53125 100.226562 305.855469 C 111.578125 299.011719 122.894531 292.203125 134.246094 285.363281 C 173.601562 261.648438 213.160156 238.339844 250.9375 212.175781 C 286.601562 187.523438 321.726562 161.0625 360.714844 141.777344 C 361.320312 141.472656 361.921875 141.371094 362.492188 141.441406 C 367.699219 136.074219 371.425781 129.296875 373.140625 122.019531 C 373.542969 120.308594 373.84375 118.597656 374.011719 116.855469 C 374.953125 107.53125 372.566406 98.777344 368.167969 90.59375 C 363.570312 81.90625 357.757812 73.65625 351.078125 66.476562 Z M 27.894531 247.59375 C 27.390625 247.863281 26.851562 247.964844 26.28125 247.964844 C 25.140625 247.964844 24.167969 247.496094 23.328125 246.757812 C 22.824219 246.253906 22.453125 245.617188 22.253906 244.914062 C 22.21875 244.542969 22.152344 244.175781 22.117188 243.804688 C 22.085938 243.234375 22.21875 242.699219 22.488281 242.195312 C 22.65625 241.691406 22.957031 241.222656 23.359375 240.855469 C 23.730469 240.453125 24.199219 240.148438 24.703125 239.980469 C 25.207031 239.714844 25.746094 239.613281 26.316406 239.613281 C 27.457031 239.613281 28.433594 240.082031 29.269531 240.820312 C 29.773438 241.324219 30.144531 241.960938 30.347656 242.664062 C 30.378906 243.035156 30.445312 243.402344 30.480469 243.773438 C 30.515625 244.34375 30.378906 244.878906 30.109375 245.382812 C 29.941406 245.886719 29.640625 246.355469 29.238281 246.722656 C 28.867188 247.125 28.433594 247.429688 27.894531 247.59375 Z M 38.339844 275.9375 C 38.304688 276.441406 38.171875 276.875 37.902344 277.3125 C 37.699219 277.546875 37.5 277.816406 37.332031 278.050781 C 36.960938 278.351562 36.558594 278.652344 36.1875 278.921875 C 35.683594 279.222656 35.179688 279.390625 34.609375 279.425781 C 34.242188 279.527344 33.871094 279.527344 33.46875 279.425781 C 32.898438 279.390625 32.359375 279.222656 31.890625 278.921875 C 31.589844 278.6875 31.320312 278.484375 31.015625 278.25 C 30.78125 277.949219 30.582031 277.679688 30.347656 277.378906 C 30.210938 277.042969 30.042969 276.707031 29.910156 276.375 C 29.84375 276.003906 29.808594 275.636719 29.742188 275.234375 C 29.808594 274.863281 29.84375 274.496094 29.910156 274.09375 C 30.042969 273.523438 30.277344 273.054688 30.683594 272.648438 C 30.882812 272.316406 31.117188 272.082031 31.453125 271.878906 C 31.722656 271.609375 32.023438 271.441406 32.394531 271.34375 C 32.730469 271.140625 33.097656 271.039062 33.46875 271.039062 C 33.839844 270.941406 34.207031 270.941406 34.609375 271.039062 C 35.179688 271.074219 35.71875 271.242188 36.1875 271.542969 C 36.492188 271.777344 36.761719 271.980469 37.0625 272.214844 C 37.296875 272.515625 37.5 272.785156 37.734375 273.085938 C 37.800781 273.21875 37.867188 273.386719 37.933594 273.523438 C 38.203125 273.957031 38.339844 274.394531 38.371094 274.898438 C 38.40625 275.265625 38.40625 275.601562 38.339844 275.9375 Z M 248.824219 100.453125 C 248.992188 99.949219 249.257812 99.546875 249.628906 99.179688 C 250 98.808594 250.402344 98.507812 250.90625 98.375 C 251.375 98.140625 251.878906 98.003906 252.414062 98.039062 C 253.492188 98.039062 254.429688 98.476562 255.203125 99.210938 C 255.707031 99.714844 256.042969 100.285156 256.210938 100.957031 C 256.246094 101.292969 256.3125 101.660156 256.34375 101.996094 C 256.378906 102.53125 256.246094 103.035156 256.007812 103.503906 C 255.839844 104.007812 255.574219 104.410156 255.203125 104.78125 C 254.832031 105.148438 254.429688 105.449219 253.925781 105.585938 C 253.457031 105.820312 252.953125 105.953125 252.414062 105.921875 C 251.339844 105.921875 250.402344 105.484375 249.628906 104.746094 C 249.125 104.242188 248.789062 103.671875 248.621094 103.003906 C 248.585938 102.667969 248.519531 102.296875 248.488281 101.964844 C 248.453125 101.425781 248.585938 100.921875 248.824219 100.453125 Z M 84.949219 209.828125 C 85.148438 209.5625 85.351562 209.324219 85.554688 209.058594 C 86.222656 208.320312 87.265625 207.984375 88.238281 207.949219 C 89.179688 207.917969 90.253906 208.386719 90.925781 209.058594 C 91.296875 209.394531 91.5625 209.796875 91.699219 210.265625 C 91.832031 210.535156 91.933594 210.800781 91.964844 211.070312 C 92 211.238281 92.035156 211.371094 92.066406 211.539062 C 92.066406 211.574219 92.066406 211.574219 92.101562 211.605469 C 92.101562 211.605469 92.101562 211.640625 92.101562 211.640625 C 92.269531 212.210938 92.269531 212.8125 92.101562 213.382812 C 92 213.753906 91.898438 213.953125 91.730469 214.222656 C 91.058594 215.328125 89.917969 215.867188 88.675781 215.96875 C 87.835938 216 87.0625 215.730469 86.390625 215.296875 C 85.519531 214.828125 84.980469 213.921875 84.644531 213.050781 C 84.511719 212.644531 84.511719 212.210938 84.445312 211.773438 C 84.445312 211.035156 84.613281 210.398438 84.949219 209.828125 Z M 48.445312 254.371094 C 48.34375 254.839844 48.109375 255.242188 47.808594 255.578125 C 47.574219 255.945312 47.238281 256.25 46.835938 256.484375 C 46.296875 256.820312 45.691406 256.953125 45.054688 256.953125 C 44.953125 256.953125 44.851562 256.953125 44.753906 256.953125 C 44.082031 256.953125 43.441406 256.785156 42.871094 256.449219 C 42.300781 256.113281 41.863281 255.679688 41.527344 255.109375 C 40.855469 253.96875 40.855469 252.492188 41.527344 251.351562 C 42.199219 250.210938 43.441406 249.507812 44.753906 249.507812 C 46.0625 249.507812 47.304688 250.210938 47.976562 251.351562 C 48.175781 251.722656 48.34375 252.125 48.480469 252.492188 C 48.613281 253.128906 48.613281 253.734375 48.445312 254.371094 Z M 53.582031 234.347656 C 52.914062 234.144531 52.308594 233.808594 51.804688 233.308594 C 51.300781 232.804688 50.964844 232.199219 50.761719 231.53125 C 50.5625 230.824219 50.5625 230.085938 50.761719 229.382812 C 50.898438 228.847656 51.132812 228.410156 51.5 228.007812 C 51.769531 227.570312 52.171875 227.238281 52.644531 226.96875 C 53.28125 226.597656 53.953125 226.429688 54.691406 226.429688 C 56.070312 226.429688 57.511719 227.203125 58.183594 228.445312 C 58.417969 228.878906 58.621094 229.347656 58.753906 229.820312 C 58.921875 230.523438 58.957031 231.160156 58.753906 231.898438 C 58.621094 232.433594 58.417969 232.769531 58.082031 233.171875 C 57.78125 233.574219 57.511719 233.84375 57.042969 234.113281 C 56.472656 234.449219 55.699219 234.683594 55.0625 234.648438 C 54.558594 234.515625 54.054688 234.480469 53.582031 234.347656 Z M 57.078125 277.109375 C 57.175781 276.609375 57.410156 276.207031 57.746094 275.835938 C 58.015625 275.433594 58.351562 275.097656 58.824219 274.863281 C 59.257812 274.59375 59.730469 274.429688 60.234375 274.429688 C 60.738281 274.328125 61.242188 274.328125 61.742188 274.496094 C 61.878906 274.527344 62.046875 274.59375 62.179688 274.628906 C 62.820312 274.863281 63.390625 275.132812 63.894531 275.601562 C 64.128906 275.835938 64.328125 276.171875 64.53125 276.40625 C 64.867188 276.976562 65.035156 277.582031 65.035156 278.25 C 65 278.585938 64.933594 278.890625 64.902344 279.222656 C 64.800781 279.695312 64.566406 280.128906 64.230469 280.464844 C 63.960938 280.867188 63.625 281.167969 63.1875 281.40625 C 63.019531 281.472656 62.851562 281.570312 62.683594 281.640625 C 62.382812 281.808594 62.078125 281.90625 61.742188 281.90625 C 61.40625 282.007812 61.074219 282.007812 60.738281 281.90625 C 60.570312 281.875 60.367188 281.875 60.199219 281.839844 C 60.066406 281.808594 59.898438 281.808594 59.761719 281.773438 C 59.125 281.605469 58.554688 281.269531 58.082031 280.800781 C 57.882812 280.53125 57.679688 280.296875 57.480469 280.027344 C 56.910156 279.15625 56.875 278.082031 57.078125 277.109375 Z M 65.035156 301.359375 C 64.867188 301.863281 64.597656 302.300781 64.195312 302.667969 C 63.824219 303.070312 63.390625 303.339844 62.886719 303.507812 C 62.414062 303.777344 61.878906 303.875 61.339844 303.84375 C 60.234375 303.84375 59.257812 303.375 58.488281 302.667969 C 57.984375 302.164062 57.648438 301.5625 57.445312 300.890625 C 57.410156 300.523438 57.34375 300.1875 57.3125 299.816406 C 57.277344 299.246094 57.410156 298.746094 57.648438 298.273438 C 57.816406 297.773438 58.082031 297.335938 58.488281 296.96875 C 58.855469 296.566406 59.292969 296.296875 59.796875 296.128906 C 60.265625 295.859375 60.804688 295.757812 61.339844 295.792969 C 62.449219 295.792969 63.421875 296.261719 64.195312 296.96875 C 64.699219 297.46875 65.035156 298.074219 65.238281 298.746094 C 65.269531 299.113281 65.335938 299.449219 65.371094 299.816406 C 65.40625 300.355469 65.304688 300.890625 65.035156 301.359375 Z M 74.335938 251.519531 C 74.335938 251.855469 74.234375 252.15625 74.066406 252.457031 C 73.96875 252.761719 73.832031 253.0625 73.597656 253.265625 C 73.398438 253.597656 73.09375 253.867188 72.757812 254.101562 C 72.726562 254.136719 72.65625 254.167969 72.625 254.203125 C 72.421875 254.402344 72.152344 254.570312 71.886719 254.640625 C 71.484375 254.839844 71.046875 254.941406 70.574219 254.941406 C 70.273438 254.90625 69.972656 254.875 69.667969 254.808594 C 69.402344 254.707031 69.132812 254.570312 68.863281 254.472656 C 68.628906 254.304688 68.394531 254.101562 68.15625 253.933594 C 68.125 253.933594 68.125 253.902344 68.125 253.867188 C 67.957031 253.632812 67.753906 253.398438 67.585938 253.164062 C 67.585938 253.128906 67.554688 253.097656 67.554688 253.097656 C 67.386719 252.828125 67.320312 252.59375 67.21875 252.324219 C 67.050781 251.921875 67.050781 251.652344 66.984375 250.984375 C 66.949219 250.480469 67.082031 249.976562 67.320312 249.539062 C 67.417969 249.238281 67.554688 248.9375 67.789062 248.734375 C 68.058594 248.332031 68.394531 248 68.828125 247.761719 C 69.132812 247.628906 69.433594 247.527344 69.703125 247.394531 C 70.039062 247.359375 70.375 247.292969 70.675781 247.261719 C 71.011719 247.292969 71.347656 247.359375 71.648438 247.394531 C 71.953125 247.527344 72.253906 247.628906 72.523438 247.761719 C 72.757812 247.964844 73.027344 248.164062 73.261719 248.332031 C 73.632812 248.667969 73.867188 249.070312 74.035156 249.539062 C 74.203125 249.84375 74.304688 250.144531 74.304688 250.480469 C 74.402344 250.847656 74.402344 251.183594 74.335938 251.519531 Z M 79.742188 232.503906 C 79.644531 232.9375 79.441406 233.273438 79.171875 233.609375 C 78.9375 233.945312 78.636719 234.246094 78.265625 234.449219 C 77.59375 234.816406 77.226562 234.851562 76.453125 234.949219 C 75.847656 234.949219 75.3125 234.78125 74.773438 234.515625 C 74.269531 234.214844 73.867188 233.808594 73.597656 233.339844 C 73.160156 232.601562 73.027344 231.628906 73.261719 230.792969 C 73.496094 229.953125 74.066406 229.28125 74.773438 228.8125 C 75.714844 228.210938 77.15625 228.210938 78.132812 228.8125 C 78.734375 229.214844 79.003906 229.484375 79.40625 230.085938 C 79.910156 230.726562 79.910156 231.699219 79.742188 232.503906 Z M 89.882812 283.550781 C 89.71875 284.054688 89.414062 284.523438 89.011719 284.890625 C 88.640625 285.296875 88.171875 285.597656 87.667969 285.765625 C 87.164062 286.03125 86.628906 286.132812 86.054688 286.132812 C 84.914062 286.132812 83.90625 285.664062 83.101562 284.925781 C 82.597656 284.390625 82.226562 283.785156 82.027344 283.082031 C 81.992188 282.710938 81.925781 282.34375 81.890625 281.972656 C 81.859375 281.40625 81.992188 280.867188 82.261719 280.363281 C 82.429688 279.863281 82.730469 279.390625 83.136719 279.023438 C 83.503906 278.621094 83.972656 278.320312 84.476562 278.152344 C 84.980469 277.882812 85.519531 277.78125 86.089844 277.78125 C 87.230469 277.78125 88.238281 278.25 89.046875 278.988281 C 89.550781 279.527344 89.917969 280.128906 90.121094 280.835938 C 90.152344 281.203125 90.21875 281.570312 90.253906 281.941406 C 90.253906 282.511719 90.152344 283.046875 89.882812 283.550781 Z M 95.628906 261.917969 C 95.558594 262.421875 95.527344 262.6875 95.222656 263.191406 C 95.089844 263.394531 94.820312 263.730469 94.652344 263.929688 C 94.484375 264.097656 94.082031 264.398438 93.878906 264.535156 C 93.578125 264.667969 93.308594 264.769531 93.007812 264.902344 C 92.972656 264.902344 92.972656 264.902344 92.941406 264.902344 C 92.300781 265.070312 91.664062 265.070312 91.027344 264.902344 C 90.421875 264.734375 89.882812 264.433594 89.414062 263.964844 C 88.976562 263.527344 88.640625 262.992188 88.472656 262.351562 C 88.304688 261.882812 88.304688 261.378906 88.40625 260.910156 C 88.441406 260.441406 88.574219 259.972656 88.84375 259.570312 C 89.179688 259.03125 89.617188 258.597656 90.152344 258.261719 C 90.722656 257.925781 91.328125 257.757812 92 257.757812 C 92.636719 257.757812 93.277344 257.925781 93.8125 258.261719 C 93.949219 258.363281 94.117188 258.496094 94.25 258.597656 C 94.519531 258.765625 94.71875 258.964844 94.886719 259.234375 C 95.125 259.46875 95.257812 259.738281 95.359375 260.039062 C 95.425781 260.171875 95.492188 260.339844 95.558594 260.476562 C 95.628906 260.644531 95.59375 260.710938 95.628906 260.976562 C 95.726562 261.582031 95.726562 261.3125 95.628906 261.917969 Z M 104.257812 243.269531 C 103.886719 243.871094 103.417969 244.34375 102.8125 244.710938 C 102.175781 245.078125 101.503906 245.246094 100.796875 245.246094 C 99.960938 245.179688 99.21875 245.078125 98.515625 244.609375 C 97.910156 244.242188 97.40625 243.738281 97.039062 243.132812 C 96.667969 242.496094 96.464844 241.792969 96.464844 241.054688 C 96.464844 239.613281 97.238281 238.238281 98.515625 237.5 C 99.792969 236.761719 101.402344 236.761719 102.679688 237.5 C 103.550781 238.003906 104.121094 238.773438 104.457031 239.679688 C 104.960938 240.820312 104.894531 242.160156 104.257812 243.269531 Z M 118.964844 271.207031 C 118.796875 271.710938 118.527344 272.113281 118.160156 272.484375 C 117.789062 272.886719 117.386719 273.152344 116.882812 273.289062 C 116.414062 273.523438 115.910156 273.65625 115.371094 273.621094 C 114.296875 273.621094 113.359375 273.1875 112.585938 272.449219 C 112.082031 271.945312 111.746094 271.375 111.578125 270.703125 C 111.542969 270.371094 111.476562 270 111.445312 269.664062 C 111.410156 269.128906 111.542969 268.625 111.78125 268.15625 C 111.949219 267.652344 112.214844 267.25 112.585938 266.882812 C 112.953125 266.480469 113.359375 266.210938 113.863281 266.078125 C 114.332031 265.839844 114.835938 265.707031 115.371094 265.742188 C 116.445312 265.742188 117.386719 266.175781 118.160156 266.914062 C 118.664062 267.417969 119 267.988281 119.167969 268.660156 C 119.199219 268.996094 119.269531 269.363281 119.300781 269.699219 C 119.335938 270.234375 119.234375 270.738281 118.964844 271.207031 Z M 260.675781 175.617188 C 257.117188 178.703125 252.550781 180.179688 248.386719 182.226562 C 244.257812 184.269531 240.160156 186.453125 236.164062 188.765625 C 221.722656 197.082031 208.15625 206.808594 195.027344 217.039062 C 188.378906 222.207031 181.828125 227.503906 175.3125 232.804688 C 171.722656 235.6875 168.160156 238.605469 164.570312 241.492188 C 162.753906 242.96875 160.976562 244.410156 159.128906 245.851562 C 157.652344 246.992188 156.441406 248.097656 154.628906 248.402344 C 154.425781 248.433594 154.226562 248.46875 154.023438 248.46875 C 153.992188 248.46875 153.957031 248.46875 153.921875 248.46875 C 153.855469 249.539062 153.21875 250.582031 151.941406 250.445312 C 149.355469 250.144531 147.105469 248.265625 145.191406 246.621094 C 143.078125 244.8125 141.0625 242.898438 139.113281 240.886719 C 135.386719 237.0625 131.929688 232.972656 128.636719 228.8125 C 125.3125 224.652344 122.089844 220.394531 119.132812 216 C 117.722656 213.921875 116.347656 211.707031 115.273438 209.425781 C 114.53125 207.816406 114.097656 206.207031 113.726562 204.53125 C 112.351562 204.292969 111.207031 202.617188 112.015625 201.109375 C 116.582031 192.589844 125.546875 186.617188 133.003906 180.851562 C 149.222656 168.339844 165.777344 156.230469 182.164062 143.988281 C 196.636719 133.1875 211.449219 122.355469 228.941406 117.054688 C 231.964844 116.152344 233.609375 119.640625 232.335938 121.75 C 234.28125 125.542969 235.828125 129.601562 237.875 133.355469 C 240.359375 137.882812 243.011719 142.3125 245.765625 146.707031 C 248.519531 151.101562 251.273438 155.492188 253.996094 159.921875 C 255.371094 162.167969 256.746094 164.449219 258.023438 166.761719 C 258.929688 168.40625 260.441406 170.484375 260.507812 172.5 C 260.945312 172.867188 261.214844 173.4375 261.28125 174.007812 C 261.347656 174.613281 261.148438 175.214844 260.675781 175.617188 Z M 269.273438 134.195312 C 267.996094 134.933594 266.386719 134.933594 265.109375 134.195312 C 264.238281 133.691406 263.664062 132.921875 263.328125 132.015625 C 262.824219 130.875 262.894531 129.5 263.53125 128.394531 C 263.902344 127.789062 264.371094 127.320312 264.976562 126.949219 C 265.613281 126.582031 266.285156 126.414062 266.988281 126.414062 C 267.828125 126.480469 268.570312 126.582031 269.273438 127.050781 C 269.878906 127.421875 270.382812 127.921875 270.75 128.527344 C 271.121094 129.164062 271.320312 129.867188 271.320312 130.605469 C 271.320312 132.082031 270.515625 133.457031 269.273438 134.195312 Z M 273.539062 113.097656 C 273.269531 112.929688 273.066406 112.730469 272.898438 112.460938 C 272.664062 112.226562 272.53125 111.957031 272.429688 111.65625 C 272.363281 111.523438 272.296875 111.355469 272.230469 111.21875 C 272.160156 111.050781 272.195312 110.984375 272.160156 110.71875 C 272.09375 110.113281 272.09375 110.382812 272.160156 109.777344 C 272.230469 109.273438 272.261719 109.007812 272.566406 108.503906 C 272.699219 108.300781 272.96875 107.964844 273.136719 107.765625 C 273.304688 107.597656 273.707031 107.296875 273.90625 107.160156 C 274.210938 107.027344 274.480469 106.925781 274.78125 106.792969 C 274.8125 106.792969 274.847656 106.792969 274.847656 106.792969 C 275.484375 106.625 276.125 106.625 276.761719 106.792969 C 277.367188 106.960938 277.902344 107.261719 278.375 107.730469 C 278.808594 108.167969 279.144531 108.703125 279.3125 109.34375 C 279.480469 109.8125 279.480469 110.316406 279.382812 110.785156 C 279.347656 111.253906 279.214844 111.722656 278.945312 112.125 C 278.609375 112.664062 278.171875 113.097656 277.636719 113.433594 C 277.0625 113.769531 276.460938 113.9375 275.820312 113.9375 C 275.183594 113.9375 274.546875 113.769531 274.007812 113.433594 C 273.808594 113.300781 273.671875 113.199219 273.539062 113.097656 Z M 282.839844 161.832031 C 282.640625 162.101562 282.4375 162.335938 282.234375 162.605469 C 281.5625 163.34375 280.523438 163.675781 279.550781 163.710938 C 278.609375 163.746094 277.535156 163.273438 276.863281 162.605469 C 276.492188 162.269531 276.226562 161.867188 276.089844 161.398438 C 275.957031 161.128906 275.855469 160.859375 275.820312 160.589844 C 275.789062 160.425781 275.753906 160.289062 275.722656 160.121094 C 275.722656 160.089844 275.722656 160.089844 275.6875 160.054688 C 275.6875 160.054688 275.6875 160.019531 275.6875 160.019531 C 275.519531 159.453125 275.519531 158.847656 275.6875 158.277344 C 275.789062 157.910156 275.890625 157.707031 276.058594 157.4375 C 276.730469 156.332031 277.871094 155.796875 279.113281 155.695312 C 279.953125 155.660156 280.726562 155.929688 281.394531 156.367188 C 282.269531 156.835938 282.808594 157.742188 283.140625 158.613281 C 283.277344 159.015625 283.277344 159.453125 283.34375 159.886719 C 283.34375 160.625 283.175781 161.261719 282.839844 161.832031 Z M 285.558594 91.332031 C 285.390625 91.832031 285.089844 92.304688 284.6875 92.671875 C 284.316406 93.074219 283.847656 93.375 283.34375 93.542969 C 282.839844 93.8125 282.304688 93.914062 281.730469 93.914062 C 280.589844 93.914062 279.582031 93.445312 278.777344 92.707031 C 278.273438 92.167969 277.902344 91.566406 277.703125 90.859375 C 277.667969 90.492188 277.601562 90.125 277.566406 89.753906 C 277.535156 89.183594 277.667969 88.648438 277.9375 88.144531 C 278.105469 87.640625 278.40625 87.171875 278.808594 86.800781 C 279.179688 86.398438 279.648438 86.097656 280.152344 85.929688 C 280.65625 85.664062 281.195312 85.5625 281.765625 85.5625 C 282.90625 85.5625 283.914062 86.03125 284.722656 86.769531 C 285.222656 87.304688 285.59375 87.910156 285.796875 88.613281 C 285.828125 88.984375 285.894531 89.351562 285.929688 89.71875 C 285.929688 90.289062 285.828125 90.828125 285.558594 91.332031 Z M 300.539062 122.085938 C 300.4375 122.390625 300.300781 122.691406 300.066406 122.890625 C 299.796875 123.292969 299.460938 123.628906 299.027344 123.863281 C 298.722656 124 298.421875 124.101562 298.152344 124.234375 C 297.816406 124.265625 297.480469 124.335938 297.179688 124.367188 C 296.84375 124.335938 296.507812 124.265625 296.207031 124.234375 C 295.902344 124.101562 295.601562 124 295.332031 123.863281 C 295.097656 123.664062 294.828125 123.460938 294.59375 123.292969 C 294.222656 122.960938 293.988281 122.558594 293.820312 122.085938 C 293.652344 121.785156 293.550781 121.484375 293.550781 121.148438 C 293.453125 120.8125 293.453125 120.476562 293.550781 120.175781 C 293.550781 119.839844 293.652344 119.539062 293.820312 119.234375 C 293.921875 118.933594 294.054688 118.632812 294.292969 118.429688 C 294.492188 118.097656 294.796875 117.828125 295.128906 117.59375 C 295.164062 117.558594 295.230469 117.527344 295.265625 117.492188 C 295.464844 117.289062 295.734375 117.125 296.003906 117.054688 C 296.40625 116.855469 296.84375 116.753906 297.3125 116.753906 C 297.617188 116.789062 297.917969 116.820312 298.21875 116.886719 C 298.488281 116.988281 298.757812 117.125 299.027344 117.222656 C 299.261719 117.390625 299.496094 117.59375 299.730469 117.761719 C 299.730469 117.761719 299.765625 117.792969 299.765625 117.828125 C 299.933594 118.0625 300.132812 118.296875 300.300781 118.53125 C 300.300781 118.566406 300.335938 118.597656 300.335938 118.597656 C 300.503906 118.867188 300.570312 119.101562 300.671875 119.371094 C 300.839844 119.773438 300.839844 120.042969 300.90625 120.710938 C 300.875 121.179688 300.773438 121.652344 300.539062 122.085938 Z M 302.417969 71.878906 C 302.382812 71.308594 302.519531 70.804688 302.753906 70.335938 C 302.921875 69.832031 303.191406 69.394531 303.59375 69.027344 C 303.960938 68.625 304.398438 68.355469 304.902344 68.1875 C 305.371094 67.917969 305.910156 67.820312 306.449219 67.851562 C 307.554688 67.851562 308.53125 68.320312 309.300781 69.027344 C 309.804688 69.53125 310.140625 70.132812 310.34375 70.804688 C 310.375 71.171875 310.445312 71.507812 310.476562 71.878906 C 310.511719 72.449219 310.375 72.949219 310.140625 73.421875 C 309.972656 73.921875 309.703125 74.359375 309.300781 74.726562 C 308.933594 75.128906 308.496094 75.398438 307.992188 75.566406 C 307.523438 75.835938 306.984375 75.933594 306.449219 75.902344 C 305.339844 75.902344 304.367188 75.433594 303.59375 74.726562 C 303.089844 74.226562 302.753906 73.621094 302.550781 72.949219 C 302.519531 72.582031 302.453125 72.210938 302.417969 71.878906 Z M 306.042969 97.199219 C 305.910156 97.167969 305.742188 97.097656 305.609375 97.066406 C 304.96875 96.832031 304.398438 96.5625 303.894531 96.09375 C 303.660156 95.859375 303.457031 95.523438 303.257812 95.289062 C 302.921875 94.71875 302.753906 94.113281 302.753906 93.445312 C 302.789062 93.109375 302.855469 92.804688 302.886719 92.472656 C 302.988281 92 303.222656 91.566406 303.558594 91.230469 C 303.828125 90.828125 304.164062 90.527344 304.601562 90.289062 C 304.769531 90.222656 304.9375 90.125 305.105469 90.054688 C 305.40625 89.886719 305.707031 89.789062 306.042969 89.789062 C 306.378906 89.6875 306.714844 89.6875 307.050781 89.789062 C 307.21875 89.820312 307.421875 89.820312 307.589844 89.855469 C 307.757812 89.886719 307.890625 89.886719 308.027344 89.921875 C 308.664062 90.089844 309.234375 90.425781 309.703125 90.894531 C 309.90625 91.164062 310.109375 91.398438 310.308594 91.667969 C 310.878906 92.539062 310.914062 93.613281 310.679688 94.585938 C 310.578125 95.085938 310.34375 95.488281 310.007812 95.859375 C 309.738281 96.261719 309.402344 96.597656 308.933594 96.832031 C 308.496094 97.097656 308.027344 97.265625 307.523438 97.265625 C 307.050781 97.402344 306.546875 97.367188 306.042969 97.199219 Z M 317.027344 142.3125 C 316.890625 142.847656 316.65625 143.285156 316.285156 143.6875 C 316.019531 144.125 315.613281 144.457031 315.144531 144.726562 C 314.507812 145.097656 313.835938 145.261719 313.097656 145.261719 C 311.71875 145.261719 310.277344 144.492188 309.605469 143.25 C 309.367188 142.816406 309.167969 142.34375 309.035156 141.875 C 308.867188 141.171875 308.832031 140.535156 309.035156 139.796875 C 309.167969 139.261719 309.367188 138.925781 309.703125 138.523438 C 310.007812 138.121094 310.277344 137.851562 310.746094 137.582031 C 311.316406 137.246094 312.089844 137.011719 312.726562 137.046875 C 313.230469 137.078125 313.699219 137.113281 314.171875 137.28125 C 314.84375 137.480469 315.445312 137.816406 315.949219 138.320312 C 316.453125 138.824219 316.789062 139.425781 316.992188 140.097656 C 317.226562 140.871094 317.226562 141.574219 317.027344 142.3125 Z M 326.292969 120.308594 C 325.621094 121.449219 324.378906 122.152344 323.070312 122.152344 C 321.761719 122.152344 320.519531 121.449219 319.847656 120.308594 C 319.644531 119.941406 319.476562 119.539062 319.34375 119.167969 C 319.175781 118.53125 319.175781 117.929688 319.34375 117.289062 C 319.445312 116.820312 319.679688 116.417969 319.980469 116.082031 C 320.214844 115.714844 320.550781 115.414062 320.953125 115.179688 C 321.492188 114.84375 322.097656 114.707031 322.734375 114.707031 C 322.835938 114.707031 322.9375 114.707031 323.035156 114.707031 C 323.707031 114.707031 324.347656 114.875 324.917969 115.210938 C 325.488281 115.546875 325.925781 115.984375 326.261719 116.554688 C 326.964844 117.695312 326.964844 119.167969 326.292969 120.308594 Z M 336.367188 99.75 C 336.097656 100.015625 335.796875 100.183594 335.429688 100.285156 C 335.09375 100.488281 334.722656 100.585938 334.351562 100.585938 C 333.984375 100.6875 333.613281 100.6875 333.210938 100.585938 C 332.640625 100.554688 332.101562 100.386719 331.632812 100.085938 C 331.332031 99.851562 331.0625 99.648438 330.761719 99.414062 C 330.523438 99.113281 330.324219 98.84375 330.089844 98.542969 C 330.019531 98.40625 329.953125 98.238281 329.886719 98.105469 C 329.617188 97.667969 329.484375 97.234375 329.449219 96.730469 C 329.351562 96.394531 329.351562 96.058594 329.449219 95.757812 C 329.484375 95.253906 329.617188 94.820312 329.886719 94.382812 C 330.089844 94.148438 330.289062 93.878906 330.457031 93.644531 C 330.828125 93.34375 331.230469 93.042969 331.601562 92.773438 C 332.101562 92.472656 332.605469 92.304688 333.179688 92.269531 C 333.546875 92.167969 333.917969 92.167969 334.320312 92.269531 C 334.890625 92.304688 335.429688 92.472656 335.898438 92.773438 C 336.199219 93.007812 336.46875 93.207031 336.769531 93.445312 C 337.007812 93.746094 337.207031 94.015625 337.441406 94.316406 C 337.578125 94.652344 337.746094 94.988281 337.878906 95.320312 C 337.945312 95.691406 337.980469 96.058594 338.046875 96.460938 C 337.980469 96.832031 337.945312 97.199219 337.878906 97.601562 C 337.746094 98.171875 337.476562 98.640625 337.105469 99.042969 C 336.9375 99.3125 336.703125 99.546875 336.367188 99.75 Z M 345.300781 129.5 C 345.132812 130.003906 344.832031 130.472656 344.425781 130.839844 C 344.058594 131.242188 343.589844 131.546875 343.085938 131.714844 C 342.582031 131.980469 342.042969 132.082031 341.472656 132.082031 C 340.332031 132.082031 339.355469 131.613281 338.515625 130.875 C 338.011719 130.371094 337.644531 129.734375 337.441406 129.03125 C 337.410156 128.660156 337.34375 128.292969 337.308594 127.921875 C 337.273438 127.351562 337.410156 126.816406 337.679688 126.3125 C 337.84375 125.808594 338.148438 125.339844 338.550781 124.972656 C 338.921875 124.570312 339.390625 124.265625 339.894531 124.101562 C 340.398438 123.832031 340.933594 123.730469 341.507812 123.730469 C 342.648438 123.730469 343.621094 124.199219 344.460938 124.9375 C 344.964844 125.441406 345.335938 126.078125 345.535156 126.78125 C 345.570312 127.152344 345.636719 127.519531 345.671875 127.890625 C 345.671875 128.460938 345.570312 128.996094 345.300781 129.5 Z M 345.300781 129.5 " fill-opacity="1" fill-rule="nonzero"/></g><g fill="#1658ad" fill-opacity="1"><g transform="translate(142.900033, 224.170658)"><g><path d="M 1.265625 -0.890625 C 1.023438 -0.722656 0.820312 -0.757812 0.65625 -1 L -6.90625 -11.6875 C -7.070312 -11.9375 -7.035156 -12.144531 -6.796875 -12.3125 L -5.515625 -13.21875 C -5.273438 -13.394531 -5.070312 -13.359375 -4.90625 -13.109375 C -4.789062 -12.960938 -4.660156 -12.9375 -4.515625 -13.03125 C -4.453125 -13.070312 -4.394531 -13.140625 -4.34375 -13.234375 C -4.125 -13.640625 -3.859375 -14.023438 -3.546875 -14.390625 C -3.234375 -14.753906 -2.875 -15.082031 -2.46875 -15.375 C -1.757812 -15.875 -1.023438 -16.203125 -0.265625 -16.359375 C 0.492188 -16.515625 1.238281 -16.523438 1.96875 -16.390625 C 2.113281 -16.347656 2.226562 -16.351562 2.3125 -16.40625 C 2.414062 -16.476562 2.46875 -16.585938 2.46875 -16.734375 C 2.582031 -17.472656 2.84375 -18.175781 3.25 -18.84375 C 3.65625 -19.507812 4.210938 -20.09375 4.921875 -20.59375 C 5.828125 -21.238281 6.773438 -21.597656 7.765625 -21.671875 C 8.765625 -21.753906 9.710938 -21.582031 10.609375 -21.15625 C 11.515625 -20.738281 12.28125 -20.085938 12.90625 -19.203125 L 17.40625 -12.84375 C 17.570312 -12.601562 17.539062 -12.394531 17.3125 -12.21875 L 16.03125 -11.328125 C 15.789062 -11.160156 15.585938 -11.195312 15.421875 -11.4375 L 10.921875 -17.796875 C 10.359375 -18.585938 9.644531 -19.054688 8.78125 -19.203125 C 7.925781 -19.359375 7.109375 -19.160156 6.328125 -18.609375 C 5.515625 -18.035156 5.039062 -17.3125 4.90625 -16.4375 C 4.769531 -15.5625 4.972656 -14.738281 5.515625 -13.96875 L 10.015625 -7.609375 C 10.179688 -7.367188 10.148438 -7.164062 9.921875 -7 L 8.65625 -6.109375 C 8.40625 -5.929688 8.195312 -5.960938 8.03125 -6.203125 L 3.53125 -12.5625 C 2.96875 -13.351562 2.253906 -13.828125 1.390625 -13.984375 C 0.535156 -14.140625 -0.28125 -13.941406 -1.0625 -13.390625 C -1.84375 -12.835938 -2.3125 -12.140625 -2.46875 -11.296875 C -2.632812 -10.453125 -2.425781 -9.613281 -1.84375 -8.78125 L 2.65625 -2.421875 C 2.800781 -2.160156 2.765625 -1.953125 2.546875 -1.796875 Z M 1.265625 -0.890625 "/></g></g></g><g fill="#1658ad" fill-opacity="1"><g transform="translate(161.288832, 211.179581)"><g><path d="M 5.328125 -3.765625 C 4.429688 -3.128906 3.484375 -2.765625 2.484375 -2.671875 C 1.492188 -2.578125 0.546875 -2.738281 -0.359375 -3.15625 C -1.265625 -3.582031 -2.035156 -4.242188 -2.671875 -5.140625 L -4.109375 -7.171875 C -4.742188 -8.066406 -5.101562 -9.007812 -5.1875 -10 C -5.28125 -11 -5.117188 -11.953125 -4.703125 -12.859375 C -4.285156 -13.773438 -3.628906 -14.550781 -2.734375 -15.1875 L -2.171875 -15.59375 C -1.273438 -16.21875 -0.328125 -16.570312 0.671875 -16.65625 C 1.671875 -16.75 2.625 -16.585938 3.53125 -16.171875 C 4.4375 -15.753906 5.207031 -15.097656 5.84375 -14.203125 L 6.9375 -12.671875 C 7.101562 -12.421875 7.0625 -12.207031 6.8125 -12.03125 L -0.421875 -6.921875 C -0.660156 -6.753906 -0.679688 -6.539062 -0.484375 -6.28125 C 0.117188 -5.59375 0.820312 -5.203125 1.625 -5.109375 C 2.425781 -5.023438 3.191406 -5.238281 3.921875 -5.75 L 4.484375 -6.15625 C 4.984375 -6.5 5.359375 -6.914062 5.609375 -7.40625 C 5.859375 -7.894531 5.96875 -8.398438 5.9375 -8.921875 C 5.914062 -9.160156 6 -9.347656 6.1875 -9.484375 L 7.59375 -10.46875 C 7.800781 -10.613281 7.972656 -10.59375 8.109375 -10.40625 C 8.148438 -10.34375 8.175781 -10.296875 8.1875 -10.265625 C 8.488281 -9.148438 8.441406 -8.035156 8.046875 -6.921875 C 7.648438 -5.816406 6.929688 -4.898438 5.890625 -4.171875 Z M -1.8125 -8.921875 L 3.40625 -12.609375 C 3.664062 -12.785156 3.691406 -12.992188 3.484375 -13.234375 C 2.929688 -13.835938 2.265625 -14.175781 1.484375 -14.25 C 0.703125 -14.320312 -0.046875 -14.109375 -0.765625 -13.609375 L -1.328125 -13.203125 C -2.046875 -12.691406 -2.5 -12.054688 -2.6875 -11.296875 C -2.875 -10.546875 -2.785156 -9.800781 -2.421875 -9.0625 L -2.359375 -8.984375 C -2.222656 -8.773438 -2.039062 -8.753906 -1.8125 -8.921875 Z M -1.8125 -8.921875 "/></g></g></g><g fill="#1658ad" fill-opacity="1"><g transform="translate(172.51034, 203.251957)"><g><path d="M 5.328125 -3.765625 C 4.429688 -3.128906 3.484375 -2.765625 2.484375 -2.671875 C 1.492188 -2.578125 0.546875 -2.738281 -0.359375 -3.15625 C -1.265625 -3.582031 -2.035156 -4.242188 -2.671875 -5.140625 L -4.109375 -7.171875 C -4.742188 -8.066406 -5.101562 -9.007812 -5.1875 -10 C -5.28125 -11 -5.117188 -11.953125 -4.703125 -12.859375 C -4.285156 -13.773438 -3.628906 -14.550781 -2.734375 -15.1875 L -2.171875 -15.59375 C -1.742188 -15.882812 -1.304688 -16.113281 -0.859375 -16.28125 C -0.421875 -16.445312 0.0234375 -16.566406 0.484375 -16.640625 C 0.578125 -16.660156 0.65625 -16.691406 0.71875 -16.734375 C 0.875 -16.847656 0.878906 -17 0.734375 -17.1875 L -2.015625 -21.09375 C -2.179688 -21.332031 -2.144531 -21.535156 -1.90625 -21.703125 L -0.640625 -22.59375 C -0.390625 -22.769531 -0.179688 -22.738281 -0.015625 -22.5 L 10.34375 -7.84375 C 10.507812 -7.601562 10.46875 -7.394531 10.21875 -7.21875 L 8.953125 -6.328125 C 8.710938 -6.160156 8.507812 -6.195312 8.34375 -6.4375 L 8.3125 -6.46875 C 8.207031 -6.613281 8.085938 -6.640625 7.953125 -6.546875 C 7.921875 -6.515625 7.890625 -6.476562 7.859375 -6.4375 C 7.835938 -6.40625 7.8125 -6.363281 7.78125 -6.3125 C 7.5625 -5.90625 7.296875 -5.519531 6.984375 -5.15625 C 6.679688 -4.789062 6.316406 -4.460938 5.890625 -4.171875 Z M 3.921875 -5.75 L 4.484375 -6.15625 C 5.265625 -6.707031 5.726562 -7.414062 5.875 -8.28125 C 6.03125 -9.15625 5.832031 -9.984375 5.28125 -10.765625 L 3.84375 -12.796875 C 3.28125 -13.585938 2.566406 -14.054688 1.703125 -14.203125 C 0.835938 -14.359375 0.015625 -14.160156 -0.765625 -13.609375 L -1.328125 -13.203125 C -2.117188 -12.648438 -2.585938 -11.9375 -2.734375 -11.0625 C -2.890625 -10.195312 -2.6875 -9.367188 -2.125 -8.578125 L -0.6875 -6.546875 C -0.132812 -5.765625 0.570312 -5.296875 1.4375 -5.140625 C 2.300781 -4.992188 3.128906 -5.195312 3.921875 -5.75 Z M 3.921875 -5.75 "/></g></g></g><g fill="#1658ad" fill-opacity="1"><g transform="translate(184.003338, 195.132535)"><g><path d="M -7.734375 -13.625 C -7.828125 -13.5625 -7.9375 -13.539062 -8.0625 -13.5625 C -8.1875 -13.582031 -8.285156 -13.644531 -8.359375 -13.75 L -9.703125 -15.65625 C -9.765625 -15.75 -9.785156 -15.859375 -9.765625 -15.984375 C -9.742188 -16.109375 -9.6875 -16.203125 -9.59375 -16.265625 L -7.609375 -17.671875 C -7.503906 -17.742188 -7.390625 -17.769531 -7.265625 -17.75 C -7.140625 -17.726562 -7.046875 -17.671875 -6.984375 -17.578125 L -5.640625 -15.671875 C -5.566406 -15.566406 -5.539062 -15.453125 -5.5625 -15.328125 C -5.582031 -15.203125 -5.644531 -15.101562 -5.75 -15.03125 Z M 1.640625 -1.15625 C 1.535156 -1.082031 1.421875 -1.054688 1.296875 -1.078125 C 1.171875 -1.097656 1.078125 -1.15625 1.015625 -1.25 L -6.546875 -11.9375 C -6.617188 -12.039062 -6.640625 -12.15625 -6.609375 -12.28125 C -6.585938 -12.40625 -6.523438 -12.503906 -6.421875 -12.578125 L -5.171875 -13.46875 C -5.078125 -13.53125 -4.96875 -13.550781 -4.84375 -13.53125 C -4.726562 -13.507812 -4.632812 -13.445312 -4.5625 -13.34375 L 3 -2.65625 C 3.0625 -2.5625 3.082031 -2.453125 3.0625 -2.328125 C 3.039062 -2.203125 2.984375 -2.109375 2.890625 -2.046875 Z M 1.640625 -1.15625 "/></g></g></g><g fill="#1658ad" fill-opacity="1"><g transform="translate(188.528143, 191.93591)"><g><path d="M 4.6875 -3.3125 C 3.957031 -2.789062 3.195312 -2.46875 2.40625 -2.34375 C 1.613281 -2.226562 0.867188 -2.300781 0.171875 -2.5625 C -0.523438 -2.832031 -1.097656 -3.285156 -1.546875 -3.921875 L -2.296875 -4.984375 C -2.359375 -5.078125 -2.375 -5.175781 -2.34375 -5.28125 C -2.320312 -5.382812 -2.269531 -5.460938 -2.1875 -5.515625 L -0.859375 -6.46875 C -0.753906 -6.539062 -0.648438 -6.566406 -0.546875 -6.546875 C -0.441406 -6.535156 -0.359375 -6.484375 -0.296875 -6.390625 L 0.453125 -5.328125 C 0.722656 -4.941406 1.125 -4.738281 1.65625 -4.71875 C 2.1875 -4.707031 2.726562 -4.898438 3.28125 -5.296875 L 7.46875 -8.265625 C 8.039062 -8.660156 8.375 -9.15625 8.46875 -9.75 C 8.570312 -10.34375 8.425781 -10.914062 8.03125 -11.46875 L 7.328125 -12.46875 C 7.015625 -12.914062 6.625 -13.195312 6.15625 -13.3125 C 5.6875 -13.4375 5.203125 -13.390625 4.703125 -13.171875 L -1.484375 -10.296875 C -2.140625 -9.984375 -2.820312 -9.832031 -3.53125 -9.84375 C -4.238281 -9.863281 -4.90625 -10.039062 -5.53125 -10.375 C -6.15625 -10.71875 -6.6875 -11.203125 -7.125 -11.828125 L -7.4375 -12.25 C -7.9375 -12.957031 -8.210938 -13.707031 -8.265625 -14.5 C -8.316406 -15.300781 -8.160156 -16.066406 -7.796875 -16.796875 C -7.441406 -17.535156 -6.898438 -18.164062 -6.171875 -18.6875 L -1.984375 -21.65625 C -1.234375 -22.175781 -0.453125 -22.472656 0.359375 -22.546875 C 1.171875 -22.628906 1.957031 -22.492188 2.71875 -22.140625 C 3.476562 -21.796875 4.117188 -21.257812 4.640625 -20.53125 L 5 -20 C 5.0625 -19.914062 5.082031 -19.816406 5.0625 -19.703125 C 5.050781 -19.597656 5 -19.507812 4.90625 -19.4375 L 3.5625 -18.484375 C 3.476562 -18.429688 3.378906 -18.414062 3.265625 -18.4375 C 3.148438 -18.457031 3.0625 -18.507812 3 -18.59375 L 2.640625 -19.125 C 2.234375 -19.6875 1.738281 -20.015625 1.15625 -20.109375 C 0.570312 -20.210938 -0.00390625 -20.066406 -0.578125 -19.671875 L -4.765625 -16.703125 C -5.316406 -16.304688 -5.65625 -15.828125 -5.78125 -15.265625 C -5.90625 -14.703125 -5.789062 -14.164062 -5.4375 -13.65625 L -5.125 -13.234375 C -4.8125 -12.773438 -4.410156 -12.476562 -3.921875 -12.34375 C -3.441406 -12.21875 -2.960938 -12.273438 -2.484375 -12.515625 L 3.6875 -15.390625 C 4.71875 -15.859375 5.75 -15.957031 6.78125 -15.6875 C 7.820312 -15.414062 8.671875 -14.8125 9.328125 -13.875 L 10.03125 -12.875 C 10.550781 -12.144531 10.84375 -11.367188 10.90625 -10.546875 C 10.976562 -9.722656 10.84375 -8.9375 10.5 -8.1875 C 10.164062 -7.4375 9.625 -6.800781 8.875 -6.28125 Z M 4.6875 -3.3125 "/></g></g></g><g fill="#1658ad" fill-opacity="1"><g transform="translate(202.428374, 182.115858)"><g><path d="M 4.40625 2.3125 C 4.164062 2.488281 3.957031 2.453125 3.78125 2.203125 L 2.890625 0.9375 C 2.722656 0.707031 2.757812 0.503906 3 0.328125 L 4.71875 -0.875 C 4.945312 -1.039062 5.132812 -1.242188 5.28125 -1.484375 C 5.425781 -1.722656 5.484375 -1.976562 5.453125 -2.25 C 5.453125 -2.320312 5.425781 -2.398438 5.375 -2.484375 C 5.300781 -2.578125 5.210938 -2.65625 5.109375 -2.71875 L -7.59375 -11.125 C -7.6875 -11.175781 -7.742188 -11.222656 -7.765625 -11.265625 C -7.878906 -11.429688 -7.828125 -11.585938 -7.609375 -11.734375 L -6.15625 -12.765625 C -5.957031 -12.910156 -5.75 -12.910156 -5.53125 -12.765625 L 4 -6.375 C 4.164062 -6.25 4.296875 -6.222656 4.390625 -6.296875 C 4.492188 -6.359375 4.519531 -6.5 4.46875 -6.71875 L 1.609375 -17.8125 C 1.546875 -18.0625 1.613281 -18.257812 1.8125 -18.40625 L 3.265625 -19.421875 C 3.484375 -19.578125 3.648438 -19.570312 3.765625 -19.40625 C 3.785156 -19.363281 3.8125 -19.296875 3.84375 -19.203125 L 7.328125 -5.171875 L 7.765625 -3.03125 C 7.941406 -2.195312 7.890625 -1.421875 7.609375 -0.703125 C 7.328125 0.00390625 6.84375 0.597656 6.15625 1.078125 Z M 4.40625 2.3125 "/></g></g></g><g fill="#1658ad" fill-opacity="1"><g transform="translate(214.210957, 173.791853)"><g><path d="M 1.25 -0.890625 C 1 -0.703125 0.800781 -0.738281 0.65625 -1 L -6.90625 -11.6875 C -7.070312 -11.9375 -7.035156 -12.144531 -6.796875 -12.3125 L -5.515625 -13.21875 C -5.285156 -13.382812 -5.085938 -13.34375 -4.921875 -13.09375 C -4.804688 -12.945312 -4.675781 -12.925781 -4.53125 -13.03125 C -4.46875 -13.070312 -4.410156 -13.140625 -4.359375 -13.234375 C -4.148438 -13.628906 -3.882812 -14.007812 -3.5625 -14.375 C -3.25 -14.738281 -2.890625 -15.066406 -2.484375 -15.359375 L -1.90625 -15.765625 C -1.019531 -16.398438 -0.078125 -16.757812 0.921875 -16.84375 C 1.921875 -16.925781 2.867188 -16.757812 3.765625 -16.34375 C 4.671875 -15.925781 5.441406 -15.269531 6.078125 -14.375 L 10.578125 -8.015625 C 10.742188 -7.773438 10.710938 -7.570312 10.484375 -7.40625 L 9.21875 -6.515625 C 8.96875 -6.335938 8.757812 -6.367188 8.59375 -6.609375 L 4.09375 -12.96875 C 3.53125 -13.757812 2.816406 -14.226562 1.953125 -14.375 C 1.097656 -14.53125 0.28125 -14.332031 -0.5 -13.78125 L -1.078125 -13.375 C -1.816406 -12.851562 -2.28125 -12.171875 -2.46875 -11.328125 C -2.664062 -10.484375 -2.46875 -9.625 -1.875 -8.75 L 2.625 -2.390625 C 2.789062 -2.148438 2.753906 -1.945312 2.515625 -1.78125 Z M 1.25 -0.890625 "/></g></g></g><g fill="#1658ad" fill-opacity="1"><g transform="translate(225.776356, 165.621282)"><g><path d="M 5.328125 -3.765625 C 4.429688 -3.128906 3.484375 -2.765625 2.484375 -2.671875 C 1.492188 -2.578125 0.546875 -2.738281 -0.359375 -3.15625 C -1.265625 -3.582031 -2.035156 -4.242188 -2.671875 -5.140625 L -4.109375 -7.171875 C -4.742188 -8.066406 -5.101562 -9.007812 -5.1875 -10 C -5.28125 -11 -5.117188 -11.953125 -4.703125 -12.859375 C -4.285156 -13.773438 -3.628906 -14.550781 -2.734375 -15.1875 L -2.171875 -15.59375 C -1.304688 -16.195312 -0.394531 -16.5625 0.5625 -16.6875 C 1.53125 -16.8125 2.453125 -16.695312 3.328125 -16.34375 C 4.210938 -16 4.953125 -15.410156 5.546875 -14.578125 C 5.722656 -14.316406 5.691406 -14.101562 5.453125 -13.9375 L 4.1875 -13.03125 C 4.09375 -12.96875 3.984375 -12.941406 3.859375 -12.953125 C 3.742188 -12.972656 3.648438 -13.03125 3.578125 -13.125 C 3.242188 -13.601562 2.832031 -13.929688 2.34375 -14.109375 C 1.851562 -14.285156 1.335938 -14.332031 0.796875 -14.25 C 0.253906 -14.164062 -0.265625 -13.953125 -0.765625 -13.609375 L -1.328125 -13.203125 C -2.117188 -12.648438 -2.585938 -11.9375 -2.734375 -11.0625 C -2.890625 -10.195312 -2.6875 -9.367188 -2.125 -8.578125 L -0.6875 -6.546875 C -0.132812 -5.765625 0.570312 -5.296875 1.4375 -5.140625 C 2.300781 -4.992188 3.128906 -5.195312 3.921875 -5.75 L 4.484375 -6.15625 C 4.984375 -6.5 5.363281 -6.914062 5.625 -7.40625 C 5.882812 -7.894531 6.007812 -8.398438 6 -8.921875 C 6 -9.453125 5.835938 -9.945312 5.515625 -10.40625 C 5.441406 -10.5 5.414062 -10.601562 5.4375 -10.71875 C 5.46875 -10.84375 5.53125 -10.9375 5.625 -11 L 6.890625 -11.90625 C 7.128906 -12.070312 7.34375 -12.023438 7.53125 -11.765625 C 8.113281 -10.941406 8.421875 -10.050781 8.453125 -9.09375 C 8.492188 -8.144531 8.289062 -7.238281 7.84375 -6.375 C 7.40625 -5.507812 6.753906 -4.773438 5.890625 -4.171875 Z M 5.328125 -3.765625 "/></g></g></g></svg>